<svg width="122" height="145" viewBox="0 0 122 145" fill="none" xmlns="http://www.w3.org/2000/svg">
<path fill-rule="evenodd" clip-rule="evenodd" d="M60.9652 0.261719C51.5374 0.261719 43.8947 7.90441 43.8947 17.3322V38.0645H78.0356V17.3322C78.0356 7.90442 70.3929 0.261719 60.9652 0.261719ZM60.9652 7.40932C55.9536 7.40932 51.8909 11.472 51.8909 16.4836V27.0691H70.0394V16.4836C70.0394 11.472 65.9767 7.40932 60.9652 7.40932Z" fill="black"/>
<path d="M5.33745 90.4256C5.72935 86.6699 8.89519 83.8172 12.6713 83.8172C16.7436 83.8172 20.0449 87.1185 20.0449 91.1909V109.096C20.0449 113.683 16.3265 117.402 11.7396 117.402C6.81172 117.402 2.9677 113.136 3.47914 108.234L5.33745 90.4256Z" fill="white"/>
<path fill-rule="evenodd" clip-rule="evenodd" d="M22.8886 91.1909V109.096C22.8886 115.254 17.897 120.245 11.7396 120.245C5.12441 120.245 -0.0358126 114.519 0.650738 107.939L2.50905 90.1304C3.05209 84.9263 7.43889 80.9735 12.6713 80.9735C18.3141 80.9735 22.8886 85.548 22.8886 91.1909ZM12.6713 83.8172C8.89518 83.8172 5.72934 86.6699 5.33745 90.4256L3.47913 108.234C2.9677 113.136 6.81172 117.402 11.7396 117.402C16.3265 117.402 20.0449 113.683 20.0449 109.096V91.1909C20.0449 87.1185 16.7436 83.8172 12.6713 83.8172Z" fill="black"/>
<path d="M116.663 90.4256C116.271 86.6699 113.105 83.8172 109.329 83.8172C105.256 83.8172 101.955 87.1185 101.955 91.1909V109.096C101.955 113.683 105.674 117.402 110.26 117.402C115.188 117.402 119.032 113.136 118.521 108.234L116.663 90.4256Z" fill="white"/>
<path fill-rule="evenodd" clip-rule="evenodd" d="M99.1114 91.1909V109.096C99.1114 115.254 104.103 120.245 110.26 120.245C116.876 120.245 122.036 114.519 121.349 107.939L119.491 90.1304C118.948 84.9263 114.561 80.9735 109.329 80.9735C103.686 80.9735 99.1114 85.548 99.1114 91.1909ZM109.329 83.8172C113.105 83.8172 116.271 86.6699 116.663 90.4256L118.521 108.234C119.032 113.136 115.188 117.402 110.26 117.402C105.674 117.402 101.955 113.683 101.955 109.096V91.1909C101.955 87.1185 105.256 83.8172 109.329 83.8172Z" fill="black"/>
<path d="M16.6564 54.5889C18.3886 33.9655 35.6332 18.1086 56.3292 18.1086H65.8559C86.5519 18.1086 103.797 33.9655 105.529 54.589L110.519 114.003C111.773 128.93 99.9948 141.738 85.0148 141.738H37.1703C22.1903 141.738 10.4126 128.93 11.6663 114.002L16.6564 54.5889Z" fill="white"/>
<path fill-rule="evenodd" clip-rule="evenodd" d="M56.3292 15.2648H65.8559C88.0303 15.2648 106.507 32.2544 108.362 54.3509L113.353 113.765C114.746 130.351 101.659 144.582 85.0148 144.582H37.1703C20.5258 144.582 7.43949 130.351 8.83254 113.764L13.8227 54.3509C15.6785 32.2543 34.1549 15.2648 56.3292 15.2648ZM56.3292 18.1086C35.6332 18.1086 18.3886 33.9655 16.6564 54.5889L11.6663 114.002C10.4126 128.93 22.1903 141.738 37.1703 141.738H85.0148C99.9948 141.738 111.773 128.93 110.519 114.003L105.529 54.589C103.797 33.9655 86.552 18.1086 65.8559 18.1086H56.3292Z" fill="black"/>
<path d="M42.1563 45.3047C42.1563 42.1636 44.7027 39.6172 47.8438 39.6172H74.3413C77.4824 39.6172 80.0288 42.1636 80.0288 45.3047V50.9875C80.0288 54.1286 77.4824 56.675 74.3413 56.675H47.8438C44.7027 56.675 42.1563 54.1286 42.1563 50.9875V45.3047Z" fill="black"/>
<path d="M32.6196 126.637C35.2136 130.093 39.3449 132.328 43.9983 132.328H88.246C96.0988 132.328 102.465 125.962 102.465 118.109V101.119C102.465 96.4653 100.229 92.3339 96.7737 89.74C97.0983 90.7971 97.2729 91.9197 97.2729 93.0831V115.761C97.2729 122.044 92.1802 127.136 85.898 127.136H35.9628C34.7993 127.136 33.6767 126.962 32.6196 126.637Z" fill="black"/>
<path fill-rule="evenodd" clip-rule="evenodd" d="M35.9627 78.8643H85.8979C93.7507 78.8643 100.117 85.2303 100.117 93.0831V115.761C100.117 123.614 93.7507 129.98 85.8979 129.98H35.9627C28.1099 129.98 21.744 123.614 21.744 115.761V93.0831C21.744 85.2303 28.1099 78.8643 35.9627 78.8643ZM35.9627 81.7081C29.6805 81.7081 24.5877 86.8009 24.5877 93.0831V115.761C24.5877 122.044 29.6805 127.136 35.9627 127.136H85.8979C92.1802 127.136 97.2729 122.044 97.2729 115.761V93.0831C97.2729 86.8009 92.1802 81.7081 85.8979 81.7081H35.9627Z" fill="black"/>
<path fill-rule="evenodd" clip-rule="evenodd" d="M23.0036 99.0682C23.0036 98.2829 23.6402 97.6463 24.4255 97.6463H97.7597C98.5449 97.6463 99.1815 98.2829 99.1815 99.0682C99.1815 99.8535 98.5449 100.49 97.7597 100.49H24.4255C23.6402 100.49 23.0036 99.8535 23.0036 99.0682Z" fill="black"/>
<path d="M77.099 96.3529C77.2599 95.28 78.3056 94.4778 79.5432 94.4778H79.9934C81.231 94.4778 82.2767 95.28 82.4376 96.3529L83.9904 106.705C84.3248 108.934 82.3399 110.912 79.7683 110.912C77.1967 110.912 75.2118 108.934 75.5462 106.705L77.099 96.3529Z" fill="black"/>
</svg>
